<svg xmlns="http://www.w3.org/2000/svg" viewBox="0 0 155 60" width="155" height="60">
  <rect width="155" height="60" rx="5" fill="#000"/>
  <g fill="#fff">
    <path d="M58.42,20.24a4.41,4.41,0,0,1-1.18,3.25,4.56,4.56,0,0,1-3.44,1.43,4.7,4.7,0,0,1-4.68-4.68,4.7,4.7,0,0,1,4.68-4.68,4.88,4.88,0,0,1,1.95.4,3.93,3.93,0,0,1,1.49,1.09l-.84.84a3,3,0,0,0-2.6-1.13,3.47,3.47,0,0,0-3.48,3.48,3.47,3.47,0,0,0,3.48,3.48,3.38,3.38,0,0,0,2.64-1.05,2.93,2.93,0,0,0,.77-1.88H53.8V19.17h4.58A4.1,4.1,0,0,1,58.42,20.24Z"/>
    <path d="M65.47,17.24H61.14v2.92h3.91v1.11H61.14v2.92h4.33v1.14H59.92V16.1h5.55Z"/>
    <path d="M70.93,25.33h-1.2V17.24H67.18V16.1h6.3v1.14H70.93Z"/>
    <path d="M78.42,25.33V16.1h1.22v9.23Z"/>
    <path d="M84.44,25.33h-1.2V17.24H80.69V16.1H87v1.14H84.44Z"/>
    <path d="M97.91,24.15a4.85,4.85,0,0,1-6.82,0,4.85,4.85,0,0,1,0-6.82,4.85,4.85,0,0,1,6.82,0,4.85,4.85,0,0,1,0,6.82Zm-5.94-.88a3.51,3.51,0,0,0,5.06,0,3.77,3.77,0,0,0,0-5.06,3.51,3.51,0,0,0-5.06,0,3.77,3.77,0,0,0,0,5.06Z"/>
    <path d="M100.94,25.33V16.1h1.49l4.62,7.4h.05l-.05-1.83V16.1h1.22v9.23h-1.28l-4.84-7.77h-.05l.05,1.83v5.94Z"/>
    <path d="M120.91,23.9a5.11,5.11,0,0,1-7.13,0,5,5,0,0,1-1.46-3.66,5,5,0,0,1,1.46-3.66,5.11,5.11,0,0,1,7.13,0,5,5,0,0,1,1.46,3.66A5,5,0,0,1,120.91,23.9Zm-6.2-.89a3.59,3.59,0,0,0,5.28,0,4,4,0,0,0,1.11-2.77,4,4,0,0,0-1.11-2.77,3.59,3.59,0,0,0-5.28,0A4,4,0,0,0,113.6,20.24,4,4,0,0,0,114.71,23Z"/>
    <path d="M123.25,25.33V16.1h1.49l4.62,7.4h.05l-.05-1.83V16.1h1.22v9.23H129.3l-4.84-7.77h-.05l.05,1.83v5.94Z"/>
    <path d="M48.86,33.82a4.76,4.76,0,0,0-4.77,4.77,4.76,4.76,0,0,0,4.77,4.77,4.76,4.76,0,0,0,4.77-4.77A4.76,4.76,0,0,0,48.86,33.82Zm0,7.67a2.92,2.92,0,1,1,2.71-2.9A2.77,2.77,0,0,1,48.86,41.49Zm-10.47-7.67a4.76,4.76,0,0,0-4.77,4.77,4.76,4.76,0,0,0,4.77,4.77,4.76,4.76,0,0,0,4.77-4.77A4.76,4.76,0,0,0,38.39,33.82Zm0,7.67a2.92,2.92,0,1,1,2.71-2.9A2.77,2.77,0,0,1,38.39,41.49ZM26,35.15v2h4.8a4.19,4.19,0,0,1-1.09,2.52,4.9,4.9,0,0,1-3.7,1.47,5.32,5.32,0,0,1,0-10.64,5.12,5.12,0,0,1,3.61,1.43l1.41-1.41a7,7,0,0,0-5-2A7.34,7.34,0,1,0,26,43.1a6.65,6.65,0,0,0,5.07-2,6.5,6.5,0,0,0,1.7-4.6,6.29,6.29,0,0,0-.11-1.22Zm48.87,1.52a4.39,4.39,0,0,0-4.06-3,4.5,4.5,0,0,0-4.47,4.77,4.69,4.69,0,0,0,4.7,4.77,4.71,4.71,0,0,0,3.95-2.1l-1.62-1.08a2.7,2.7,0,0,1-2.33,1.31,2.41,2.41,0,0,1-2.29-1.43l6.33-2.62Zm-6.45,1.58a2.59,2.59,0,0,1,2.47-2.76,1.83,1.83,0,0,1,1.75,1Z"/>
  </g>
  <path d="M67.66,41.72a5.12,5.12,0,0,1,0-7.23,5.12,5.12,0,0,1,7.23,0,5.12,5.12,0,0,1,0,7.23,5.12,5.12,0,0,1-7.23,0Zm5.7-1.53a3.5,3.5,0,0,0,0-4.16,3,3,0,0,0-4.16,0,3.5,3.5,0,0,0,0,4.16A3,3,0,0,0,73.36,40.19Zm-9.23,7.48V30.73h2.06v16.94Zm-3.35-9.93h-7v2.06h4.93a4.47,4.47,0,0,1-4.93,3.83,5.35,5.35,0,0,1,0-10.7,5,5,0,0,1,3.53,1.4l1.46-1.46a6.8,6.8,0,0,0-5-2,7.41,7.41,0,1,0,0,14.82,6.59,6.59,0,0,0,5-1.7,6.89,6.89,0,0,0,1.81-4.9A6.54,6.54,0,0,0,60.78,37.74Zm45.51,2.69-1.84,1.23a4.45,4.45,0,0,1-4.16,2.35,4.77,4.77,0,0,1,0-9.54,4.53,4.53,0,0,1,4.16,2.35l1.84-1.23a6.9,6.9,0,0,0-6-3.18,6.83,6.83,0,1,0,0,13.66A6.9,6.9,0,0,0,106.29,40.43Zm-9.4,5.18h2.06V30.73H96.89Zm-3.35-9.93a4.77,4.77,0,0,0-4.77-4.77,4.77,4.77,0,0,0-4.77,4.77,4.77,4.77,0,0,0,4.77,4.77A4.77,4.77,0,0,0,93.54,35.68Zm-2.06,0a2.77,2.77,0,0,1-2.71,2.9,2.92,2.92,0,1,1,0-5.81A2.77,2.77,0,0,1,91.48,35.68Z" fill="#4285f4"/>
  <path d="M110.53,43.36a4.41,4.41,0,0,0,3.3-1.37,4.58,4.58,0,0,0,0-6.47,4.41,4.41,0,0,0-3.3-1.37,4.57,4.57,0,0,0-3.33,1.37,4.58,4.58,0,0,0,0,6.47A4.57,4.57,0,0,0,110.53,43.36Zm-1.4-6.24a2.44,2.44,0,0,1,1.4-.44,2.39,2.39,0,0,1,1.37.44,2.79,2.79,0,0,1,0,4,2.39,2.39,0,0,1-1.37.44,2.44,2.44,0,0,1-1.4-.44,2.79,2.79,0,0,1,0-4Zm-5.5,6.24a4.41,4.41,0,0,0,3.3-1.37,4.58,4.58,0,0,0,0-6.47,4.41,4.41,0,0,0-3.3-1.37,4.57,4.57,0,0,0-3.33,1.37,4.58,4.58,0,0,0,0,6.47A4.57,4.57,0,0,0,103.63,43.36Zm-1.4-6.24a2.44,2.44,0,0,1,1.4-.44,2.39,2.39,0,0,1,1.37.44,2.79,2.79,0,0,1,0,4,2.39,2.39,0,0,1-1.37.44,2.44,2.44,0,0,1-1.4-.44,2.79,2.79,0,0,1,0-4Zm-6.54,5.09V31.05h1.9v2.09h.06a3.24,3.24,0,0,1,3-2.33,3.35,3.35,0,0,1,3.12,1.65,3.65,3.65,0,0,1,3.33-1.65,3.45,3.45,0,0,1,2.68,1,4.58,4.58,0,0,1,.87,3.12v7.28h-2v-6.8a2.45,2.45,0,0,0-.46-1.71,1.86,1.86,0,0,0-1.43-.52,2,2,0,0,0-1.52.62,3,3,0,0,0-.62,2v6.38h-2V34.9a2.8,2.8,0,0,0-.4-1.68,1.7,1.7,0,0,0-1.4-.55,2.08,2.08,0,0,0-1.68.77,3.67,3.67,0,0,0-.65,2.27v6.5Z" fill="#ea4335"/>
  <path d="M123.7,43.36a4.57,4.57,0,0,0,3.33-1.37,4.58,4.58,0,0,0,0-6.47,4.57,4.57,0,0,0-3.33-1.37,4.41,4.41,0,0,0-3.3,1.37,4.58,4.58,0,0,0,0,6.47A4.41,4.41,0,0,0,123.7,43.36Zm-1.4-6.24a2.44,2.44,0,0,1,1.4-.44,2.39,2.39,0,0,1,1.37.44,2.79,2.79,0,0,1,0,4,2.39,2.39,0,0,1-1.37.44,2.44,2.44,0,0,1-1.4-.44,2.79,2.79,0,0,1,0-4Zm-5.5,6.24a4.57,4.57,0,0,0,3.33-1.37,4.58,4.58,0,0,0,0-6.47,4.57,4.57,0,0,0-3.33-1.37,4.41,4.41,0,0,0-3.3,1.37,4.58,4.58,0,0,0,0,6.47A4.41,4.41,0,0,0,116.8,43.36Zm-1.4-6.24a2.44,2.44,0,0,1,1.4-.44,2.39,2.39,0,0,1,1.37.44,2.79,2.79,0,0,1,0,4,2.39,2.39,0,0,1-1.37.44,2.44,2.44,0,0,1-1.4-.44,2.79,2.79,0,0,1,0-4Z" fill="#fbbc04"/>
  <path d="M132.44,43.11V41.27h-.06a3.26,3.26,0,0,1-3,2.09,3.16,3.16,0,0,1-2.37-.93,3.28,3.28,0,0,1-.9-2.37,3,3,0,0,1,1.06-2.52,4.19,4.19,0,0,1,2.68-.84,9.41,9.41,0,0,1,2.46.34v-.34a1.84,1.84,0,0,0-.65-1.52,2.38,2.38,0,0,0-1.59-.56,2.68,2.68,0,0,0-2.33,1.28l-1.65-1a4.65,4.65,0,0,1,4.14-2.06,4.86,4.86,0,0,1,3.08,1,3.64,3.64,0,0,1,1.28,3v6.31Zm0-5.25a6.55,6.55,0,0,0-2.09-.4c-1.65,0-2.49.77-2.49,1.9a1.58,1.58,0,0,0,.56,1.25,2,2,0,0,0,1.34.49,2.51,2.51,0,0,0,1.93-.84,2.85,2.85,0,0,0,.75-2Z" fill="#34a853"/>
  <path d="M137.7,43.11h-2V31.05h2V43.11Z" fill="#ea4335"/>
</svg>
